<?xml version="1.0" encoding="UTF-8"?>
<svg xmlns="http://www.w3.org/2000/svg" xmlns:xlink="http://www.w3.org/1999/xlink" width="14pt" height="14pt" viewBox="0 0 14 14" version="1.1">
<g id="surface1">
<path style=" stroke:none;fill-rule:nonzero;fill:rgb(0%,0%,0%);fill-opacity:1;" d="M 8.734375 10.867188 C 8.726562 10.875 8.714844 10.886719 8.707031 10.894531 C 8.710938 10.894531 8.710938 10.894531 8.710938 10.894531 C 8.71875 10.882812 8.726562 10.875 8.734375 10.867188 Z M 8.734375 10.867188 "/>
<path style=" stroke:none;fill-rule:nonzero;fill:rgb(0%,0%,0%);fill-opacity:1;" d="M 4.207031 3.898438 C 4.207031 3.902344 4.207031 3.898438 4.207031 3.898438 Z M 4.207031 3.84375 L 4.203125 3.84375 C 4.207031 3.863281 4.207031 3.882812 4.207031 3.898438 C 4.207031 3.882812 4.207031 3.863281 4.207031 3.84375 Z M 4.207031 3.84375 "/>
<path style=" stroke:none;fill-rule:nonzero;fill:rgb(0%,0%,0%);fill-opacity:1;" d="M 8.117188 3.363281 Z M 8.113281 3.3125 L 8.109375 3.3125 C 8.113281 3.328125 8.113281 3.347656 8.117188 3.363281 C 8.113281 3.347656 8.113281 3.328125 8.113281 3.3125 Z M 8.113281 3.3125 "/>
<path style=" stroke:none;fill-rule:nonzero;fill:rgb(0%,0%,0%);fill-opacity:1;" d="M 9.394531 7.9375 C 9.386719 7.941406 9.378906 7.949219 9.371094 7.957031 C 9.375 7.957031 9.375 7.957031 9.375 7.957031 C 9.382812 7.949219 9.390625 7.941406 9.394531 7.9375 Z M 9.394531 7.9375 "/>
<path style=" stroke:none;fill-rule:nonzero;fill:rgb(0%,0%,0%);fill-opacity:1;" d="M 4.289062 8.382812 C 3.894531 8.277344 3.535156 8.074219 3.25 7.792969 C 3.246094 7.792969 3.246094 7.792969 3.246094 7.792969 C 3.246094 7.792969 3.238281 7.78125 3.210938 7.753906 C 3.1875 7.730469 3.15625 7.695312 3.113281 7.648438 C 3.074219 7.597656 3.023438 7.539062 2.96875 7.46875 C 2.953125 7.445312 2.933594 7.421875 2.914062 7.394531 C 2.515625 6.867188 1.890625 5.835938 1.703125 4.421875 C 1.703125 4.414062 1.699219 4.410156 1.699219 4.402344 C 1.683594 4.292969 1.675781 4.1875 1.667969 4.074219 C 1.664062 4.0625 1.664062 4.039062 1.664062 4.023438 C 1.660156 3.984375 1.660156 3.949219 1.660156 3.910156 C 1.660156 2.117188 3.113281 0.671875 4.902344 0.671875 C 6.695312 0.671875 8.144531 2.117188 8.144531 3.910156 C 8.144531 3.949219 8.144531 3.984375 8.144531 4.023438 C 8.144531 4.023438 8.144531 4.070312 8.132812 4.164062 C 8.132812 4.199219 8.128906 4.242188 8.121094 4.292969 C 8.113281 4.335938 8.109375 4.386719 8.101562 4.445312 L 8.101562 4.460938 C 8.011719 5.046875 7.753906 6.132812 7.003906 7.214844 C 7.003906 7.21875 7.003906 7.222656 7 7.226562 C 6.851562 7.429688 6.6875 7.640625 6.511719 7.839844 C 6.5 7.851562 6.496094 7.855469 6.488281 7.859375 C 6.226562 8.089844 5.921875 8.265625 5.582031 8.367188 C 4.984375 8.640625 4.289062 8.382812 4.289062 8.382812 Z M 8.789062 13.628906 C 8.789062 13.628906 8.808594 13.515625 8.664062 13.070312 C 8.433594 12.242188 7.429688 11.683594 6.847656 11.683594 C 5.359375 11.65625 5.277344 10.679688 5.269531 10.570312 L 5.671875 10.570312 C 5.671875 10.570312 6.066406 10.566406 5.910156 10.222656 C 5.910156 10.21875 5.910156 10.21875 5.910156 10.21875 L 5.398438 9.113281 C 5.917969 9.019531 6.382812 8.785156 6.765625 8.449219 C 6.773438 8.441406 6.78125 8.433594 6.792969 8.425781 C 7.003906 8.1875 7.195312 7.941406 7.367188 7.699219 C 7.367188 7.695312 7.367188 7.695312 7.367188 7.691406 C 8.25 6.417969 8.550781 5.140625 8.65625 4.453125 L 8.65625 4.433594 C 8.671875 4.367188 8.675781 4.308594 8.683594 4.257812 C 8.6875 4.195312 8.695312 4.148438 8.699219 4.105469 C 8.710938 3.996094 8.710938 3.9375 8.710938 3.9375 C 8.710938 3.894531 8.710938 3.847656 8.710938 3.804688 C 8.710938 1.703125 7.011719 0 4.90625 0 C 2.804688 0 1.097656 1.703125 1.097656 3.804688 C 1.097656 3.847656 1.097656 3.894531 1.101562 3.9375 C 1.101562 3.957031 1.101562 3.980469 1.105469 4 C 1.109375 4.132812 1.125 4.257812 1.140625 4.386719 C 1.140625 4.390625 1.144531 4.402344 1.144531 4.40625 C 1.363281 6.066406 2.101562 7.277344 2.5625 7.894531 C 2.585938 7.925781 2.609375 7.957031 2.632812 7.984375 C 2.695312 8.070312 2.753906 8.136719 2.804688 8.195312 C 2.851562 8.253906 2.886719 8.296875 2.914062 8.324219 C 2.945312 8.351562 2.957031 8.367188 2.957031 8.367188 C 2.957031 8.367188 2.957031 8.367188 2.960938 8.367188 C 3.351562 8.746094 3.851562 9.011719 4.410156 9.113281 L 3.976562 10.109375 C 3.785156 10.542969 4.203125 10.570312 4.203125 10.570312 L 4.652344 10.570312 C 4.917969 12.242188 6.136719 12.265625 6.6875 12.28125 C 8.082031 12.4375 8.1875 13.59375 8.1875 13.765625 C 8.226562 13.894531 8.296875 14.027344 8.566406 13.988281 C 8.835938 13.953125 8.789062 13.628906 8.789062 13.628906 Z M 8.789062 13.628906 "/>
<path style=" stroke:none;fill-rule:nonzero;fill:rgb(0%,0%,0%);fill-opacity:1;" d="M 9.980469 1.582031 C 9.597656 1.582031 9.230469 1.664062 8.898438 1.796875 C 8.738281 1.882812 8.789062 2.085938 8.789062 2.085938 L 8.816406 2.148438 L 8.820312 2.15625 C 8.839844 2.191406 8.921875 2.316406 9.210938 2.21875 C 9.226562 2.214844 9.230469 2.214844 9.246094 2.214844 C 9.476562 2.140625 9.722656 2.09375 9.984375 2.09375 C 11.355469 2.09375 12.464844 3.207031 12.464844 4.578125 C 12.464844 4.609375 12.464844 4.632812 12.464844 4.660156 C 12.464844 4.660156 12.464844 4.699219 12.457031 4.773438 C 12.453125 4.800781 12.453125 4.832031 12.449219 4.875 C 12.441406 4.90625 12.441406 4.941406 12.429688 4.988281 L 12.429688 5 C 12.363281 5.449219 12.167969 6.277344 11.589844 7.109375 C 11.589844 7.113281 11.589844 7.113281 11.585938 7.117188 C 11.476562 7.273438 11.351562 7.433594 11.214844 7.585938 C 11.207031 7.59375 11.199219 7.597656 11.195312 7.605469 C 11 7.78125 10.761719 7.914062 10.503906 7.992188 C 10.042969 8.199219 9.511719 8.003906 9.511719 8.003906 C 9.207031 7.921875 8.933594 7.765625 8.714844 7.550781 C 8.710938 7.550781 8.710938 7.550781 8.710938 7.550781 C 8.710938 7.550781 8.707031 7.542969 8.683594 7.523438 C 8.667969 7.503906 8.644531 7.476562 8.613281 7.441406 C 8.585938 7.410156 8.554688 7.367188 8.519531 7.328125 C 8.519531 7.328125 8.519531 7.328125 8.519531 7.324219 C 8.328125 7.101562 8.160156 7.324219 8.160156 7.324219 L 8.132812 7.375 C 8.132812 7.375 8.078125 7.476562 8.160156 7.585938 C 8.167969 7.601562 8.179688 7.617188 8.1875 7.628906 C 8.207031 7.652344 8.226562 7.675781 8.242188 7.695312 C 8.292969 7.761719 8.335938 7.816406 8.371094 7.859375 C 8.40625 7.90625 8.433594 7.9375 8.460938 7.957031 C 8.480469 7.980469 8.488281 7.992188 8.488281 7.992188 C 8.488281 7.992188 8.488281 7.992188 8.492188 7.992188 C 8.789062 8.28125 9.175781 8.484375 9.605469 8.5625 L 9.273438 9.324219 C 9.152344 9.589844 9.335938 9.660156 9.414062 9.671875 L 10.621094 9.671875 C 10.699219 9.660156 10.84375 9.605469 10.75 9.410156 L 10.359375 8.5625 C 10.757812 8.488281 11.113281 8.308594 11.40625 8.050781 C 11.414062 8.046875 11.417969 8.042969 11.425781 8.035156 C 11.585938 7.851562 11.738281 7.664062 11.867188 7.476562 C 11.871094 7.476562 11.871094 7.476562 11.871094 7.472656 C 12.546875 6.496094 12.777344 5.519531 12.859375 4.992188 L 12.859375 4.980469 C 12.867188 4.929688 12.867188 4.882812 12.878906 4.84375 C 12.878906 4.796875 12.886719 4.761719 12.890625 4.726562 C 12.894531 4.644531 12.894531 4.601562 12.894531 4.601562 C 12.898438 4.566406 12.898438 4.53125 12.898438 4.5 C 12.898438 2.886719 11.59375 1.582031 9.980469 1.582031 Z M 9.980469 1.582031 "/>
</g>
</svg>
