<?xml version="1.0" encoding="UTF-8"?>
<svg xmlns="http://www.w3.org/2000/svg" xmlns:xlink="http://www.w3.org/1999/xlink" width="14pt" height="14pt" viewBox="0 0 14 14" version="1.1">
<g id="surface1">
<path style=" stroke:none;fill-rule:nonzero;fill:rgb(0%,0%,0%);fill-opacity:1;" d="M 10.355469 1.085938 C 10.242188 0.535156 9.753906 0.121094 9.171875 0.121094 C 9.039062 0.121094 8.929688 0.230469 8.929688 0.363281 C 8.929688 0.496094 9.039062 0.601562 9.171875 0.601562 C 9.570312 0.601562 9.898438 0.929688 9.898438 1.328125 C 9.898438 1.726562 9.570312 2.050781 9.171875 2.050781 C 9.039062 2.050781 8.929688 2.160156 8.929688 2.292969 C 8.929688 2.425781 9.039062 2.535156 9.171875 2.535156 C 9.753906 2.535156 10.242188 2.117188 10.355469 1.570312 L 13.515625 1.570312 L 13.515625 3.742188 L 0.484375 3.742188 L 0.484375 1.570312 L 4.585938 1.570312 C 4.71875 1.570312 4.828125 1.460938 4.828125 1.328125 C 4.828125 1.195312 4.71875 1.085938 4.585938 1.085938 L 4.148438 1.085938 C 4.246094 0.804688 4.511719 0.601562 4.828125 0.601562 C 5.226562 0.601562 5.550781 0.929688 5.550781 1.328125 C 5.550781 1.726562 5.226562 2.050781 4.828125 2.050781 C 4.695312 2.050781 4.585938 2.160156 4.585938 2.292969 C 4.585938 2.425781 4.695312 2.535156 4.828125 2.535156 C 5.492188 2.535156 6.035156 1.992188 6.035156 1.328125 C 6.035156 0.660156 5.492188 0.121094 4.828125 0.121094 C 4.246094 0.121094 3.757812 0.535156 3.644531 1.085938 L 0 1.085938 L 0 13.878906 L 14 13.878906 L 14 1.085938 Z M 13.515625 13.398438 L 0.484375 13.398438 L 0.484375 4.222656 L 13.515625 4.222656 Z M 13.515625 13.398438 "/>
<path style=" stroke:none;fill-rule:nonzero;fill:rgb(0%,0%,0%);fill-opacity:1;" d="M 6.277344 0.601562 C 6.675781 0.601562 7 0.929688 7 1.328125 C 7 1.726562 6.675781 2.050781 6.277344 2.050781 C 6.140625 2.050781 6.035156 2.160156 6.035156 2.292969 C 6.035156 2.425781 6.140625 2.535156 6.277344 2.535156 C 6.941406 2.535156 7.484375 1.992188 7.484375 1.328125 C 7.484375 0.660156 6.941406 0.121094 6.277344 0.121094 C 6.140625 0.121094 6.035156 0.230469 6.035156 0.363281 C 6.035156 0.496094 6.140625 0.601562 6.277344 0.601562 Z M 6.277344 0.601562 "/>
<path style=" stroke:none;fill-rule:nonzero;fill:rgb(0%,0%,0%);fill-opacity:1;" d="M 7.722656 0.601562 C 8.125 0.601562 8.449219 0.929688 8.449219 1.328125 C 8.449219 1.726562 8.125 2.050781 7.722656 2.050781 C 7.589844 2.050781 7.484375 2.160156 7.484375 2.292969 C 7.484375 2.425781 7.589844 2.535156 7.722656 2.535156 C 8.390625 2.535156 8.929688 1.992188 8.929688 1.328125 C 8.929688 0.660156 8.390625 0.121094 7.722656 0.121094 C 7.589844 0.121094 7.484375 0.230469 7.484375 0.363281 C 7.484375 0.496094 7.589844 0.601562 7.722656 0.601562 Z M 7.722656 0.601562 "/>
<path style=" stroke:none;fill-rule:nonzero;fill:rgb(0%,0%,0%);fill-opacity:1;" d="M 5.550781 5.914062 C 5.550781 6.046875 5.445312 6.15625 5.308594 6.15625 C 5.175781 6.15625 5.070312 6.046875 5.070312 5.914062 C 5.070312 5.78125 5.175781 5.671875 5.308594 5.671875 C 5.445312 5.671875 5.550781 5.78125 5.550781 5.914062 Z M 5.550781 5.914062 "/>
<path style=" stroke:none;fill-rule:nonzero;fill:rgb(0%,0%,0%);fill-opacity:1;" d="M 7.242188 5.914062 C 7.242188 6.046875 7.132812 6.15625 7 6.15625 C 6.867188 6.15625 6.757812 6.046875 6.757812 5.914062 C 6.757812 5.78125 6.867188 5.671875 7 5.671875 C 7.132812 5.671875 7.242188 5.78125 7.242188 5.914062 Z M 7.242188 5.914062 "/>
<path style=" stroke:none;fill-rule:nonzero;fill:rgb(0%,0%,0%);fill-opacity:1;" d="M 8.929688 5.914062 C 8.929688 6.046875 8.824219 6.15625 8.691406 6.15625 C 8.554688 6.15625 8.449219 6.046875 8.449219 5.914062 C 8.449219 5.78125 8.554688 5.671875 8.691406 5.671875 C 8.824219 5.671875 8.929688 5.78125 8.929688 5.914062 Z M 8.929688 5.914062 "/>
<path style=" stroke:none;fill-rule:nonzero;fill:rgb(0%,0%,0%);fill-opacity:1;" d="M 10.621094 5.914062 C 10.621094 6.046875 10.511719 6.15625 10.378906 6.15625 C 10.246094 6.15625 10.136719 6.046875 10.136719 5.914062 C 10.136719 5.78125 10.246094 5.671875 10.378906 5.671875 C 10.511719 5.671875 10.621094 5.78125 10.621094 5.914062 Z M 10.621094 5.914062 "/>
<path style=" stroke:none;fill-rule:nonzero;fill:rgb(0%,0%,0%);fill-opacity:1;" d="M 12.308594 5.914062 C 12.308594 6.046875 12.203125 6.15625 12.070312 6.15625 C 11.9375 6.15625 11.828125 6.046875 11.828125 5.914062 C 11.828125 5.78125 11.9375 5.671875 12.070312 5.671875 C 12.203125 5.671875 12.308594 5.78125 12.308594 5.914062 Z M 12.308594 5.914062 "/>
<path style=" stroke:none;fill-rule:nonzero;fill:rgb(0%,0%,0%);fill-opacity:1;" d="M 2.171875 7.84375 C 2.171875 7.976562 2.0625 8.085938 1.929688 8.085938 C 1.796875 8.085938 1.691406 7.976562 1.691406 7.84375 C 1.691406 7.710938 1.796875 7.601562 1.929688 7.601562 C 2.0625 7.601562 2.171875 7.710938 2.171875 7.84375 Z M 2.171875 7.84375 "/>
<path style=" stroke:none;fill-rule:nonzero;fill:rgb(0%,0%,0%);fill-opacity:1;" d="M 3.863281 7.84375 C 3.863281 7.976562 3.753906 8.085938 3.621094 8.085938 C 3.488281 8.085938 3.378906 7.976562 3.378906 7.84375 C 3.378906 7.710938 3.488281 7.601562 3.621094 7.601562 C 3.753906 7.601562 3.863281 7.710938 3.863281 7.84375 Z M 3.863281 7.84375 "/>
<path style=" stroke:none;fill-rule:nonzero;fill:rgb(0%,0%,0%);fill-opacity:1;" d="M 5.550781 7.84375 C 5.550781 7.976562 5.445312 8.085938 5.308594 8.085938 C 5.175781 8.085938 5.070312 7.976562 5.070312 7.84375 C 5.070312 7.710938 5.175781 7.601562 5.308594 7.601562 C 5.445312 7.601562 5.550781 7.710938 5.550781 7.84375 Z M 5.550781 7.84375 "/>
<path style=" stroke:none;fill-rule:nonzero;fill:rgb(0%,0%,0%);fill-opacity:1;" d="M 7.242188 7.84375 C 7.242188 7.976562 7.132812 8.085938 7 8.085938 C 6.867188 8.085938 6.757812 7.976562 6.757812 7.84375 C 6.757812 7.710938 6.867188 7.601562 7 7.601562 C 7.132812 7.601562 7.242188 7.710938 7.242188 7.84375 Z M 7.242188 7.84375 "/>
<path style=" stroke:none;fill-rule:nonzero;fill:rgb(0%,0%,0%);fill-opacity:1;" d="M 8.929688 7.84375 C 8.929688 7.976562 8.824219 8.085938 8.691406 8.085938 C 8.554688 8.085938 8.449219 7.976562 8.449219 7.84375 C 8.449219 7.710938 8.554688 7.601562 8.691406 7.601562 C 8.824219 7.601562 8.929688 7.710938 8.929688 7.84375 Z M 8.929688 7.84375 "/>
<path style=" stroke:none;fill-rule:nonzero;fill:rgb(0%,0%,0%);fill-opacity:1;" d="M 10.621094 7.84375 C 10.621094 7.976562 10.511719 8.085938 10.378906 8.085938 C 10.246094 8.085938 10.136719 7.976562 10.136719 7.84375 C 10.136719 7.710938 10.246094 7.601562 10.378906 7.601562 C 10.511719 7.601562 10.621094 7.710938 10.621094 7.84375 Z M 10.621094 7.84375 "/>
<path style=" stroke:none;fill-rule:nonzero;fill:rgb(0%,0%,0%);fill-opacity:1;" d="M 12.308594 7.84375 C 12.308594 7.976562 12.203125 8.085938 12.070312 8.085938 C 11.9375 8.085938 11.828125 7.976562 11.828125 7.84375 C 11.828125 7.710938 11.9375 7.601562 12.070312 7.601562 C 12.203125 7.601562 12.308594 7.710938 12.308594 7.84375 Z M 12.308594 7.84375 "/>
<path style=" stroke:none;fill-rule:nonzero;fill:rgb(0%,0%,0%);fill-opacity:1;" d="M 2.171875 9.535156 C 2.171875 9.667969 2.0625 9.777344 1.929688 9.777344 C 1.796875 9.777344 1.691406 9.667969 1.691406 9.535156 C 1.691406 9.402344 1.796875 9.292969 1.929688 9.292969 C 2.0625 9.292969 2.171875 9.402344 2.171875 9.535156 Z M 2.171875 9.535156 "/>
<path style=" stroke:none;fill-rule:nonzero;fill:rgb(0%,0%,0%);fill-opacity:1;" d="M 3.863281 9.535156 C 3.863281 9.667969 3.753906 9.777344 3.621094 9.777344 C 3.488281 9.777344 3.378906 9.667969 3.378906 9.535156 C 3.378906 9.402344 3.488281 9.292969 3.621094 9.292969 C 3.753906 9.292969 3.863281 9.402344 3.863281 9.535156 Z M 3.863281 9.535156 "/>
<path style=" stroke:none;fill-rule:nonzero;fill:rgb(0%,0%,0%);fill-opacity:1;" d="M 5.550781 9.535156 C 5.550781 9.667969 5.445312 9.777344 5.308594 9.777344 C 5.175781 9.777344 5.070312 9.667969 5.070312 9.535156 C 5.070312 9.402344 5.175781 9.292969 5.308594 9.292969 C 5.445312 9.292969 5.550781 9.402344 5.550781 9.535156 Z M 5.550781 9.535156 "/>
<path style=" stroke:none;fill-rule:nonzero;fill:rgb(0%,0%,0%);fill-opacity:1;" d="M 7.242188 9.535156 C 7.242188 9.667969 7.132812 9.777344 7 9.777344 C 6.867188 9.777344 6.757812 9.667969 6.757812 9.535156 C 6.757812 9.402344 6.867188 9.292969 7 9.292969 C 7.132812 9.292969 7.242188 9.402344 7.242188 9.535156 Z M 7.242188 9.535156 "/>
<path style=" stroke:none;fill-rule:nonzero;fill:rgb(0%,0%,0%);fill-opacity:1;" d="M 8.929688 9.535156 C 8.929688 9.667969 8.824219 9.777344 8.691406 9.777344 C 8.554688 9.777344 8.449219 9.667969 8.449219 9.535156 C 8.449219 9.402344 8.554688 9.292969 8.691406 9.292969 C 8.824219 9.292969 8.929688 9.402344 8.929688 9.535156 Z M 8.929688 9.535156 "/>
<path style=" stroke:none;fill-rule:nonzero;fill:rgb(0%,0%,0%);fill-opacity:1;" d="M 10.621094 9.535156 C 10.621094 9.667969 10.511719 9.777344 10.378906 9.777344 C 10.246094 9.777344 10.136719 9.667969 10.136719 9.535156 C 10.136719 9.402344 10.246094 9.292969 10.378906 9.292969 C 10.511719 9.292969 10.621094 9.402344 10.621094 9.535156 Z M 10.621094 9.535156 "/>
<path style=" stroke:none;fill-rule:nonzero;fill:rgb(0%,0%,0%);fill-opacity:1;" d="M 12.308594 9.535156 C 12.308594 9.667969 12.203125 9.777344 12.070312 9.777344 C 11.9375 9.777344 11.828125 9.667969 11.828125 9.535156 C 11.828125 9.402344 11.9375 9.292969 12.070312 9.292969 C 12.203125 9.292969 12.308594 9.402344 12.308594 9.535156 Z M 12.308594 9.535156 "/>
<path style=" stroke:none;fill-rule:nonzero;fill:rgb(0%,0%,0%);fill-opacity:1;" d="M 2.171875 11.464844 C 2.171875 11.597656 2.0625 11.707031 1.929688 11.707031 C 1.796875 11.707031 1.691406 11.597656 1.691406 11.464844 C 1.691406 11.332031 1.796875 11.222656 1.929688 11.222656 C 2.0625 11.222656 2.171875 11.332031 2.171875 11.464844 Z M 2.171875 11.464844 "/>
<path style=" stroke:none;fill-rule:nonzero;fill:rgb(0%,0%,0%);fill-opacity:1;" d="M 3.863281 11.464844 C 3.863281 11.597656 3.753906 11.707031 3.621094 11.707031 C 3.488281 11.707031 3.378906 11.597656 3.378906 11.464844 C 3.378906 11.332031 3.488281 11.222656 3.621094 11.222656 C 3.753906 11.222656 3.863281 11.332031 3.863281 11.464844 Z M 3.863281 11.464844 "/>
<path style=" stroke:none;fill-rule:nonzero;fill:rgb(0%,0%,0%);fill-opacity:1;" d="M 5.550781 11.464844 C 5.550781 11.597656 5.445312 11.707031 5.308594 11.707031 C 5.175781 11.707031 5.070312 11.597656 5.070312 11.464844 C 5.070312 11.332031 5.175781 11.222656 5.308594 11.222656 C 5.445312 11.222656 5.550781 11.332031 5.550781 11.464844 Z M 5.550781 11.464844 "/>
<path style=" stroke:none;fill-rule:nonzero;fill:rgb(0%,0%,0%);fill-opacity:1;" d="M 7.242188 11.464844 C 7.242188 11.597656 7.132812 11.707031 7 11.707031 C 6.867188 11.707031 6.757812 11.597656 6.757812 11.464844 C 6.757812 11.332031 6.867188 11.222656 7 11.222656 C 7.132812 11.222656 7.242188 11.332031 7.242188 11.464844 Z M 7.242188 11.464844 "/>
<path style=" stroke:none;fill-rule:nonzero;fill:rgb(0%,0%,0%);fill-opacity:1;" d="M 8.929688 11.464844 C 8.929688 11.597656 8.824219 11.707031 8.691406 11.707031 C 8.554688 11.707031 8.449219 11.597656 8.449219 11.464844 C 8.449219 11.332031 8.554688 11.222656 8.691406 11.222656 C 8.824219 11.222656 8.929688 11.332031 8.929688 11.464844 Z M 8.929688 11.464844 "/>
</g>
</svg>
