<?xml version="1.0" encoding="UTF-8"?>
<svg xmlns="http://www.w3.org/2000/svg" xmlns:xlink="http://www.w3.org/1999/xlink" width="14pt" height="14pt" viewBox="0 0 14 14" version="1.1">
<g id="surface1">
<path style=" stroke:none;fill-rule:nonzero;fill:rgb(0%,0%,0%);fill-opacity:1;" d="M 13.976562 4.371094 C 13.769531 2.121094 12.179688 0.492188 10.1875 0.492188 C 8.859375 0.492188 7.644531 1.207031 6.960938 2.351562 C 6.28125 1.191406 5.117188 0.492188 3.8125 0.492188 C 1.820312 0.492188 0.230469 2.121094 0.0234375 4.371094 C 0.0078125 4.46875 -0.0585938 4.992188 0.144531 5.847656 C 0.433594 7.078125 1.105469 8.195312 2.082031 9.082031 L 6.960938 13.507812 L 11.917969 9.082031 C 12.894531 8.195312 13.566406 7.078125 13.855469 5.847656 C 14.058594 4.992188 13.992188 4.472656 13.976562 4.371094 Z M 13.332031 5.726562 C 13.066406 6.847656 12.453125 7.871094 11.558594 8.679688 L 6.960938 12.78125 L 2.445312 8.679688 C 1.546875 7.871094 0.933594 6.847656 0.667969 5.726562 C 0.476562 4.917969 0.554688 4.460938 0.554688 4.457031 L 0.558594 4.429688 C 0.734375 2.460938 2.101562 1.027344 3.8125 1.027344 C 5.070312 1.027344 6.1875 1.804688 6.710938 3.050781 L 6.960938 3.640625 L 7.207031 3.050781 C 7.726562 1.824219 8.898438 1.027344 10.1875 1.027344 C 11.898438 1.027344 13.265625 2.460938 13.445312 4.457031 C 13.445312 4.460938 13.523438 4.917969 13.332031 5.726562 Z M 13.332031 5.726562 "/>
</g>
</svg>
