<?xml version="1.0" encoding="UTF-8"?>
<svg xmlns="http://www.w3.org/2000/svg" xmlns:xlink="http://www.w3.org/1999/xlink" width="14pt" height="14pt" viewBox="0 0 14 14" version="1.1">
<g id="surface1">
<path style=" stroke:none;fill-rule:nonzero;fill:rgb(0%,0%,0%);fill-opacity:1;" d="M 4.113281 12.34375 C 3.570312 12.34375 3.054688 12.128906 2.667969 11.742188 L 2.257812 11.332031 C 1.460938 10.535156 1.460938 9.238281 2.257812 8.441406 L 4.9375 5.761719 C 5.320312 5.375 5.835938 5.164062 6.382812 5.164062 C 6.925781 5.164062 7.441406 5.375 7.824219 5.761719 L 8.238281 6.175781 C 8.351562 6.289062 8.351562 6.472656 8.238281 6.585938 C 8.125 6.703125 7.941406 6.703125 7.824219 6.585938 L 7.414062 6.175781 C 7.136719 5.898438 6.769531 5.75 6.382812 5.75 C 5.992188 5.75 5.625 5.898438 5.347656 6.175781 L 2.667969 8.855469 C 2.097656 9.421875 2.097656 10.347656 2.667969 10.917969 L 3.078125 11.332031 C 3.355469 11.609375 3.722656 11.757812 4.113281 11.757812 C 4.5 11.757812 4.867188 11.609375 5.144531 11.332031 L 7 9.472656 C 7.113281 9.363281 7.296875 9.363281 7.414062 9.472656 C 7.527344 9.585938 7.527344 9.773438 7.414062 9.886719 L 5.558594 11.742188 C 5.171875 12.128906 4.660156 12.34375 4.113281 12.34375 Z M 4.113281 12.34375 "/>
<path style=" stroke:none;fill-rule:nonzero;fill:rgb(0%,0%,0%);fill-opacity:1;" d="M 7.617188 8.835938 C 7.074219 8.835938 6.558594 8.625 6.175781 8.238281 C 6.058594 8.125 6.058594 7.941406 6.175781 7.824219 C 6.289062 7.710938 6.472656 7.710938 6.585938 7.824219 C 6.863281 8.101562 7.230469 8.25 7.617188 8.25 C 8.007812 8.25 8.375 8.101562 8.652344 7.824219 L 11.332031 5.144531 C 11.898438 4.578125 11.898438 3.648438 11.332031 3.082031 L 10.921875 2.667969 C 10.347656 2.097656 9.421875 2.097656 8.855469 2.667969 L 7 4.523438 C 6.886719 4.636719 6.703125 4.636719 6.585938 4.523438 C 6.472656 4.414062 6.472656 4.226562 6.585938 4.113281 L 8.441406 2.257812 C 9.238281 1.460938 10.535156 1.460938 11.332031 2.257812 L 11.742188 2.667969 C 12.539062 3.464844 12.539062 4.761719 11.742188 5.558594 L 9.0625 8.238281 C 8.679688 8.625 8.164062 8.835938 7.617188 8.835938 Z M 7.617188 8.835938 "/>
</g>
</svg>
