<?xml version="1.0" encoding="UTF-8"?>
<svg xmlns="http://www.w3.org/2000/svg" xmlns:xlink="http://www.w3.org/1999/xlink" width="14pt" height="13pt" viewBox="0 0 14 13" version="1.1">
<g id="surface1">
<path style=" stroke:none;fill-rule:nonzero;fill:rgb(0%,0%,0%);fill-opacity:1;" d="M 7.046875 2.847656 C 6.058594 2.847656 5.257812 3.59375 5.257812 4.511719 C 5.257812 5.425781 6.058594 6.171875 7.046875 6.171875 C 8.03125 6.171875 8.835938 5.425781 8.835938 4.511719 C 8.835938 3.59375 8.03125 2.847656 7.046875 2.847656 Z M 7.046875 5.699219 C 6.339844 5.699219 5.765625 5.164062 5.765625 4.511719 C 5.765625 3.855469 6.339844 3.324219 7.046875 3.324219 C 7.75 3.324219 8.324219 3.855469 8.324219 4.511719 C 8.324219 5.164062 7.75 5.699219 7.046875 5.699219 Z M 7.046875 5.699219 "/>
<path style=" stroke:none;fill-rule:nonzero;fill:rgb(0%,0%,0%);fill-opacity:1;" d="M 10.46875 1.332031 C 9.542969 0.472656 8.308594 0 7 0 C 5.691406 0 4.460938 0.472656 3.535156 1.332031 C 1.820312 2.925781 1.605469 5.917969 3.070312 7.730469 L 7 13 L 10.921875 7.738281 C 12.394531 5.917969 12.179688 2.925781 10.46875 1.332031 Z M 10.507812 7.460938 L 7 12.164062 L 3.488281 7.453125 C 2.15625 5.808594 2.347656 3.105469 3.894531 1.667969 C 4.726562 0.898438 5.828125 0.476562 7 0.476562 C 8.171875 0.476562 9.277344 0.898438 10.105469 1.667969 C 11.652344 3.105469 11.84375 5.808594 10.507812 7.460938 Z M 10.507812 7.460938 "/>
</g>
</svg>
