<?xml version="1.0" encoding="UTF-8"?>
<svg xmlns="http://www.w3.org/2000/svg" xmlns:xlink="http://www.w3.org/1999/xlink" width="16pt" height="16pt" viewBox="0 0 16 16" version="1.1">
<g id="surface1">
<path style=" stroke:none;fill-rule:nonzero;fill:rgb(33.333333%,67.843137%,93.333333%);fill-opacity:1;" d="M 14.734375 3.554688 C 14.398438 3.648438 14.085938 3.699219 13.820312 3.730469 C 14.039062 3.609375 14.414062 3.367188 14.730469 2.9375 C 14.992188 2.585938 15.117188 2.242188 15.179688 2.015625 C 14.914062 2.167969 14.601562 2.328125 14.230469 2.46875 C 13.851562 2.617188 13.503906 2.710938 13.199219 2.777344 C 13.015625 2.582031 12.660156 2.246094 12.105469 2.023438 C 11.589844 1.8125 11.132812 1.792969 10.871094 1.804688 C 10.695312 1.804688 9.378906 1.84375 8.480469 2.96875 C 7.554688 4.132812 7.855469 5.476562 7.898438 5.636719 C 7.148438 5.609375 5.78125 5.460938 4.285156 4.691406 C 2.808594 3.929688 1.882812 2.945312 1.429688 2.359375 C 1.304688 2.558594 0.820312 3.390625 1.035156 4.519531 C 1.273438 5.773438 2.210938 6.414062 2.378906 6.523438 C 2.195312 6.519531 1.960938 6.492188 1.699219 6.429688 C 1.398438 6.351562 1.152344 6.234375 0.976562 6.132812 C 0.976562 6.433594 1.007812 7.167969 1.488281 7.898438 C 2.164062 8.929688 3.21875 9.195312 3.460938 9.25 C 3.28125 9.296875 3.050781 9.339844 2.78125 9.351562 C 2.503906 9.359375 2.261719 9.332031 2.078125 9.296875 C 2.15625 9.554688 2.398438 10.257812 3.101562 10.8125 C 3.875 11.425781 4.707031 11.464844 4.964844 11.46875 C 4.570312 11.785156 3.925781 12.222656 3.035156 12.507812 C 1.914062 12.875 0.953125 12.835938 0.40625 12.773438 C 1.0625 13.199219 2.773438 14.191406 5.179688 14.195312 C 7.605469 14.203125 9.335938 13.195312 9.988281 12.773438 C 10.664062 12.328125 12.039062 11.300781 13.019531 9.445312 C 14.050781 7.492188 14.082031 5.679688 14.046875 4.867188 C 14.320312 4.664062 14.636719 4.398438 14.957031 4.054688 C 15.21875 3.773438 15.429688 3.5 15.597656 3.253906 C 15.351562 3.359375 15.0625 3.464844 14.734375 3.554688 Z M 14.734375 3.554688 "/>
</g>
</svg>
