<?xml version="1.0" encoding="UTF-8"?>
<svg xmlns="http://www.w3.org/2000/svg" xmlns:xlink="http://www.w3.org/1999/xlink" width="16pt" height="16pt" viewBox="0 0 16 16" version="1.1">
<g id="surface1">
<path style=" stroke:none;fill-rule:nonzero;fill:rgb(31.764706%,31.764706%,31.764706%);fill-opacity:1;" d="M 8 4.5 C 8.828125 4.5 9.5 3.828125 9.5 3 C 9.5 2.171875 8.828125 1.5 8 1.5 C 7.171875 1.5 6.5 2.171875 6.5 3 C 6.5 3.828125 7.171875 4.5 8 4.5 Z M 8 2.269531 C 8.402344 2.269531 8.730469 2.597656 8.730469 3 C 8.730469 3.402344 8.402344 3.730469 8 3.730469 C 7.597656 3.730469 7.269531 3.402344 7.269531 3 C 7.269531 2.597656 7.597656 2.269531 8 2.269531 Z M 8 2.269531 "/>
<path style=" stroke:none;fill-rule:nonzero;fill:rgb(31.764706%,31.764706%,31.764706%);fill-opacity:1;" d="M 8 9.5 C 8.828125 9.5 9.5 8.828125 9.5 8 C 9.5 7.171875 8.828125 6.5 8 6.5 C 7.171875 6.5 6.5 7.171875 6.5 8 C 6.5 8.828125 7.171875 9.5 8 9.5 Z M 8 7.269531 C 8.402344 7.269531 8.730469 7.597656 8.730469 8 C 8.730469 8.402344 8.402344 8.730469 8 8.730469 C 7.597656 8.730469 7.269531 8.402344 7.269531 8 C 7.269531 7.597656 7.597656 7.269531 8 7.269531 Z M 8 7.269531 "/>
<path style=" stroke:none;fill-rule:nonzero;fill:rgb(31.764706%,31.764706%,31.764706%);fill-opacity:1;" d="M 8 14.5 C 8.828125 14.5 9.5 13.828125 9.5 13 C 9.5 12.171875 8.828125 11.5 8 11.5 C 7.171875 11.5 6.5 12.171875 6.5 13 C 6.5 13.828125 7.171875 14.5 8 14.5 Z M 8 12.269531 C 8.402344 12.269531 8.730469 12.597656 8.730469 13 C 8.730469 13.402344 8.402344 13.730469 8 13.730469 C 7.597656 13.730469 7.269531 13.402344 7.269531 13 C 7.269531 12.597656 7.597656 12.269531 8 12.269531 Z M 8 12.269531 "/>
</g>
</svg>
