<?xml version="1.0" encoding="UTF-8"?>
<svg xmlns="http://www.w3.org/2000/svg" xmlns:xlink="http://www.w3.org/1999/xlink" width="14pt" height="14pt" viewBox="0 0 14 14" version="1.1">
<g id="surface1">
<path style=" stroke:none;fill-rule:nonzero;fill:rgb(0%,0%,0%);fill-opacity:1;" d="M 13.757812 1.449219 L 0.242188 1.449219 C 0.109375 1.449219 0 1.554688 0 1.691406 L 0 12.308594 C 0 12.445312 0.109375 12.550781 0.242188 12.550781 L 13.757812 12.550781 C 13.890625 12.550781 14 12.445312 14 12.308594 L 14 1.691406 C 14 1.554688 13.890625 1.449219 13.757812 1.449219 Z M 13.515625 12.070312 L 0.484375 12.070312 L 0.484375 1.929688 L 13.515625 1.929688 Z M 13.515625 12.070312 "/>
<path style=" stroke:none;fill-rule:nonzero;fill:rgb(0%,0%,0%);fill-opacity:1;" d="M 3.863281 6.792969 C 4.601562 6.792969 5.207031 6.1875 5.207031 5.449219 C 5.207031 4.707031 4.601562 4.101562 3.863281 4.101562 C 3.121094 4.101562 2.519531 4.707031 2.519531 5.449219 C 2.519531 6.1875 3.121094 6.792969 3.863281 6.792969 Z M 3.863281 4.585938 C 4.335938 4.585938 4.722656 4.972656 4.722656 5.449219 C 4.722656 5.921875 4.335938 6.308594 3.863281 6.308594 C 3.386719 6.308594 3 5.921875 3 5.449219 C 3 4.972656 3.386719 4.585938 3.863281 4.585938 Z M 3.863281 4.585938 "/>
<path style=" stroke:none;fill-rule:nonzero;fill:rgb(0%,0%,0%);fill-opacity:1;" d="M 1.691406 11.101562 C 1.746094 11.101562 1.804688 11.082031 1.847656 11.042969 L 5.785156 7.578125 L 8.273438 10.0625 C 8.367188 10.15625 8.519531 10.15625 8.613281 10.0625 C 8.707031 9.96875 8.707031 9.816406 8.613281 9.722656 L 7.453125 8.5625 L 9.671875 6.132812 L 12.386719 8.625 C 12.488281 8.714844 12.640625 8.710938 12.730469 8.613281 C 12.820312 8.511719 12.8125 8.359375 12.714844 8.269531 L 9.816406 5.613281 C 9.769531 5.570312 9.707031 5.550781 9.644531 5.550781 C 9.582031 5.554688 9.519531 5.582031 9.476562 5.628906 L 7.113281 8.21875 L 5.96875 7.074219 C 5.878906 6.984375 5.734375 6.980469 5.636719 7.0625 L 1.53125 10.679688 C 1.429688 10.769531 1.421875 10.921875 1.507812 11.023438 C 1.554688 11.074219 1.621094 11.101562 1.691406 11.101562 Z M 1.691406 11.101562 "/>
</g>
</svg>
