<?xml version="1.0" encoding="UTF-8"?>
<svg xmlns="http://www.w3.org/2000/svg" xmlns:xlink="http://www.w3.org/1999/xlink" width="14pt" height="14pt" viewBox="0 0 14 14" version="1.1">
<g id="surface1">
<path style=" stroke:none;fill-rule:nonzero;fill:rgb(11.372549%,11.372549%,10.588235%);fill-opacity:1;" d="M 3.386719 5.582031 C 3.476562 5.679688 3.597656 5.730469 3.71875 5.730469 C 3.820312 5.730469 3.925781 5.695312 4.011719 5.617188 C 4.195312 5.453125 4.210938 5.171875 4.046875 4.988281 L 2.410156 3.121094 C 2.40625 3.117188 2.402344 3.117188 2.398438 3.113281 C 2.394531 3.105469 2.386719 3.101562 2.378906 3.09375 C 2.375 3.089844 2.375 3.085938 2.371094 3.085938 C 2.355469 3.070312 2.335938 3.066406 2.320312 3.054688 C 2.300781 3.039062 2.28125 3.023438 2.257812 3.011719 C 2.25 3.007812 2.242188 3.007812 2.234375 3.003906 C 2.210938 2.992188 2.1875 2.992188 2.164062 2.988281 C 2.140625 2.980469 2.117188 2.972656 2.09375 2.972656 C 2.085938 2.972656 2.082031 2.972656 2.078125 2.972656 C 2.074219 2.972656 2.070312 2.972656 2.066406 2.972656 C 2.042969 2.972656 2.019531 2.980469 1.996094 2.988281 C 1.972656 2.992188 1.945312 2.992188 1.921875 3.003906 C 1.914062 3.007812 1.90625 3.007812 1.898438 3.011719 C 1.878906 3.023438 1.859375 3.039062 1.839844 3.054688 C 1.820312 3.066406 1.800781 3.070312 1.785156 3.085938 C 1.78125 3.085938 1.78125 3.09375 1.777344 3.09375 C 1.769531 3.101562 1.765625 3.105469 1.757812 3.113281 C 1.757812 3.117188 1.753906 3.117188 1.75 3.121094 L 0.113281 4.988281 C -0.0507812 5.171875 -0.0351562 5.453125 0.148438 5.617188 C 0.234375 5.695312 0.335938 5.730469 0.441406 5.730469 C 0.5625 5.730469 0.683594 5.679688 0.773438 5.582031 L 1.636719 4.59375 L 1.636719 9.722656 C 1.636719 10.464844 2.230469 11.066406 2.964844 11.066406 L 9.335938 11.066406 C 9.582031 11.066406 9.777344 10.863281 9.777344 10.617188 C 9.777344 10.371094 9.582031 10.171875 9.335938 10.171875 L 2.964844 10.171875 C 2.71875 10.171875 2.519531 9.96875 2.519531 9.722656 L 2.519531 4.59375 Z M 3.386719 5.582031 "/>
<path style=" stroke:none;fill-rule:nonzero;fill:rgb(11.372549%,11.372549%,10.588235%);fill-opacity:1;" d="M 13.226562 8.457031 L 12.363281 9.441406 L 12.363281 4.3125 C 12.363281 3.574219 11.769531 2.972656 11.039062 2.972656 L 4.820312 2.972656 C 4.578125 2.972656 4.378906 3.171875 4.378906 3.417969 C 4.378906 3.664062 4.578125 3.867188 4.820312 3.867188 L 11.039062 3.867188 C 11.28125 3.867188 11.480469 4.066406 11.480469 4.3125 L 11.480469 9.441406 L 10.613281 8.457031 C 10.449219 8.269531 10.171875 8.253906 9.988281 8.417969 C 9.804688 8.582031 9.789062 8.867188 9.953125 9.050781 L 11.589844 10.914062 C 11.59375 10.917969 11.597656 10.917969 11.601562 10.921875 C 11.605469 10.929688 11.613281 10.933594 11.621094 10.941406 C 11.621094 10.945312 11.625 10.949219 11.628906 10.953125 C 11.648438 10.96875 11.671875 10.980469 11.695312 10.992188 C 11.703125 10.996094 11.707031 11.003906 11.71875 11.007812 C 11.726562 11.011719 11.734375 11.023438 11.746094 11.027344 C 11.75 11.03125 11.753906 11.03125 11.757812 11.03125 C 11.8125 11.054688 11.867188 11.066406 11.921875 11.066406 C 11.976562 11.066406 12.03125 11.054688 12.082031 11.03125 C 12.085938 11.03125 12.089844 11.03125 12.097656 11.027344 C 12.105469 11.023438 12.113281 11.011719 12.125 11.007812 C 12.132812 11.003906 12.136719 11 12.144531 10.996094 C 12.167969 10.980469 12.195312 10.972656 12.214844 10.953125 C 12.21875 10.949219 12.21875 10.945312 12.222656 10.941406 C 12.230469 10.933594 12.234375 10.929688 12.242188 10.921875 C 12.242188 10.917969 12.246094 10.917969 12.25 10.914062 L 13.886719 9.050781 C 14.050781 8.867188 14.035156 8.582031 13.851562 8.417969 C 13.667969 8.253906 13.390625 8.269531 13.226562 8.457031 Z M 13.226562 8.457031 "/>
</g>
</svg>
