<?xml version="1.0" encoding="UTF-8"?>
<svg xmlns="http://www.w3.org/2000/svg" xmlns:xlink="http://www.w3.org/1999/xlink" width="18pt" height="18pt" viewBox="0 0 18 18" version="1.1">
<g id="surface1">
<path style=" stroke:none;fill-rule:evenodd;fill:rgb(57.254902%,57.254902%,57.254902%);fill-opacity:1;" d="M 10.925781 11.488281 C 10.144531 12.050781 9.1875 12.375 8.15625 12.375 C 5.511719 12.375 3.375 10.238281 3.375 7.59375 C 3.375 4.949219 5.511719 2.8125 8.15625 2.8125 C 10.800781 2.8125 12.9375 4.949219 12.9375 7.59375 C 12.9375 8.914062 12.402344 10.109375 11.535156 10.972656 L 14.910156 14.347656 C 15.066406 14.503906 15.0625 14.75 14.90625 14.90625 C 14.75 15.0625 14.503906 15.066406 14.347656 14.910156 Z M 8.15625 11.8125 C 10.484375 11.8125 12.375 9.921875 12.375 7.59375 C 12.375 5.265625 10.484375 3.375 8.15625 3.375 C 5.828125 3.375 3.9375 5.265625 3.9375 7.59375 C 3.9375 9.921875 5.828125 11.8125 8.15625 11.8125 Z M 8.15625 11.8125 "/>
</g>
</svg>
