<?xml version="1.0" encoding="UTF-8"?>
<svg xmlns="http://www.w3.org/2000/svg" xmlns:xlink="http://www.w3.org/1999/xlink" width="14pt" height="14pt" viewBox="0 0 14 14" version="1.1">
<g id="surface1">
<path style=" stroke:none;fill-rule:nonzero;fill:rgb(0%,0%,0%);fill-opacity:1;" d="M 9.425781 8.214844 L 9.390625 8.199219 C 9.304688 8.160156 9.21875 8.121094 9.128906 8.085938 C 9.035156 8.050781 8.9375 8.015625 8.839844 7.980469 C 8.761719 7.953125 8.683594 7.929688 8.605469 7.90625 C 8.484375 7.871094 8.363281 7.839844 8.234375 7.8125 C 8.191406 7.804688 8.148438 7.796875 8.105469 7.789062 L 8.078125 7.78125 C 8.003906 7.769531 7.929688 7.753906 7.851562 7.746094 L 7.832031 7.742188 C 7.832031 7.742188 7.832031 7.742188 7.828125 7.742188 L 7.808594 7.738281 C 7.746094 7.726562 7.683594 7.71875 7.617188 7.710938 L 7.398438 7.695312 C 7.128906 7.675781 6.847656 7.675781 6.582031 7.695312 L 6.464844 7.707031 L 6.375 7.714844 C 6.289062 7.722656 6.207031 7.734375 6.125 7.746094 L 6.101562 7.75 C 6.042969 7.761719 5.988281 7.769531 5.929688 7.78125 C 5.867188 7.792969 5.808594 7.804688 5.746094 7.816406 C 5.628906 7.84375 5.507812 7.875 5.394531 7.910156 C 5.304688 7.933594 5.214844 7.964844 5.128906 7.992188 L 5.070312 8.011719 C 4.890625 8.078125 4.714844 8.148438 4.542969 8.230469 L 4.496094 8.25 L 4.496094 8.253906 C 2.484375 9.214844 1.183594 11.269531 1.183594 13.496094 C 1.183594 13.546875 1.1875 13.597656 1.191406 13.648438 L 1.207031 14 L 12.792969 14 L 12.808594 13.652344 C 12.8125 13.597656 12.816406 13.546875 12.816406 13.496094 C 12.816406 11.230469 11.484375 9.160156 9.425781 8.214844 Z M 1.753906 13.433594 C 1.777344 11.433594 2.960938 9.597656 4.761719 8.753906 L 4.820312 8.730469 L 4.828125 8.722656 C 4.96875 8.660156 5.113281 8.601562 5.261719 8.546875 L 5.308594 8.53125 C 5.386719 8.503906 5.46875 8.480469 5.550781 8.453125 C 5.65625 8.425781 5.761719 8.398438 5.867188 8.375 C 5.921875 8.363281 5.976562 8.351562 6.035156 8.339844 C 6.078125 8.332031 6.121094 8.324219 6.167969 8.316406 L 6.191406 8.3125 C 6.269531 8.300781 6.351562 8.289062 6.433594 8.277344 L 6.621094 8.261719 C 6.863281 8.246094 7.09375 8.242188 7.378906 8.261719 L 7.558594 8.277344 C 7.601562 8.285156 7.648438 8.289062 7.699219 8.296875 L 7.765625 8.304688 C 7.835938 8.316406 7.902344 8.328125 7.96875 8.339844 L 8 8.347656 C 8.039062 8.355469 8.078125 8.359375 8.113281 8.367188 C 8.226562 8.394531 8.335938 8.421875 8.445312 8.453125 C 8.515625 8.476562 8.589844 8.496094 8.660156 8.519531 C 8.746094 8.550781 8.835938 8.582031 8.921875 8.617188 C 9.003906 8.648438 9.085938 8.683594 9.167969 8.71875 L 9.183594 8.726562 C 11.023438 9.574219 12.222656 11.414062 12.246094 13.429688 L 1.753906 13.429688 Z M 5.597656 6.964844 C 5.640625 6.980469 5.683594 6.996094 5.726562 7.011719 L 5.820312 7.046875 C 5.855469 7.058594 5.890625 7.074219 5.925781 7.085938 C 6.265625 7.191406 6.621094 7.246094 6.980469 7.25 L 7.007812 7.25 C 7.132812 7.25 7.253906 7.242188 7.375 7.230469 C 7.414062 7.226562 7.453125 7.21875 7.496094 7.214844 L 7.582031 7.199219 C 7.632812 7.195312 7.683594 7.1875 7.734375 7.175781 C 7.773438 7.167969 7.804688 7.160156 7.839844 7.148438 L 7.9375 7.125 C 7.984375 7.113281 8.035156 7.101562 8.082031 7.085938 C 8.109375 7.078125 8.140625 7.066406 8.167969 7.054688 L 8.246094 7.027344 C 8.300781 7.007812 8.359375 6.988281 8.414062 6.964844 C 8.4375 6.957031 8.457031 6.945312 8.480469 6.9375 L 8.503906 6.921875 C 8.582031 6.890625 8.660156 6.855469 8.734375 6.8125 L 8.785156 6.785156 C 8.867188 6.734375 8.953125 6.683594 9.039062 6.625 C 9.085938 6.597656 9.128906 6.5625 9.167969 6.527344 L 9.316406 6.414062 C 10.152344 5.722656 10.632812 4.707031 10.632812 3.65625 L 10.632812 3.625 C 10.632812 1.625 9.007812 0 7.007812 0 C 5.101562 0 3.511719 1.492188 3.394531 3.394531 L 3.390625 3.445312 C 3.386719 3.503906 3.382812 3.5625 3.382812 3.625 C 3.382812 5.085938 4.25 6.394531 5.597656 6.964844 Z M 3.957031 3.484375 L 3.960938 3.433594 C 4.0625 1.824219 5.398438 0.566406 7.007812 0.566406 C 8.695312 0.566406 10.066406 1.9375 10.066406 3.597656 L 10.0625 3.628906 C 10.0625 4.539062 9.65625 5.394531 8.949219 5.980469 L 8.8125 6.085938 C 8.785156 6.109375 8.753906 6.132812 8.714844 6.160156 C 8.648438 6.207031 8.574219 6.25 8.503906 6.289062 L 8.460938 6.3125 C 8.398438 6.347656 8.335938 6.375 8.269531 6.40625 L 8.195312 6.441406 C 8.152344 6.460938 8.105469 6.476562 8.058594 6.492188 L 7.964844 6.527344 C 7.949219 6.53125 7.929688 6.539062 7.910156 6.546875 C 7.875 6.554688 7.839844 6.5625 7.804688 6.574219 L 7.691406 6.601562 C 7.667969 6.609375 7.644531 6.617188 7.621094 6.621094 C 7.585938 6.628906 7.546875 6.632812 7.507812 6.636719 L 7.398438 6.652344 C 7.375 6.660156 7.347656 6.664062 7.316406 6.664062 C 7.222656 6.675781 7.128906 6.679688 7.03125 6.683594 L 7.003906 6.683594 C 6.695312 6.679688 6.386719 6.636719 6.097656 6.542969 C 6.070312 6.535156 6.046875 6.527344 6.023438 6.515625 L 5.914062 6.476562 C 5.882812 6.464844 5.847656 6.453125 5.816406 6.441406 C 4.683594 5.960938 3.949219 4.855469 3.949219 3.625 C 3.949219 3.578125 3.953125 3.53125 3.957031 3.484375 Z M 3.957031 3.484375 "/>
</g>
</svg>
